<?xml version="1.0" encoding="UTF-8"?>
<svg xmlns="http://www.w3.org/2000/svg" xmlns:xlink="http://www.w3.org/1999/xlink" version="1.1" id="Layer_1" x="0px" y="0px" viewBox="0 0 434.24 120.81" style="enable-background:new 0 0 434.24 120.81;" xml:space="preserve">
<style type="text/css">
	.st0{fill:#FFFFFF;}
</style>
<g>
	<g>
		<g>
			<polygon class="st0" points="125.36,80.53 114.42,63.54 108.65,70.36 108.65,80.53 100.79,80.53 100.79,42.56 108.65,42.56      108.65,60.48 123.67,42.56 132.34,42.56 119.55,57.49 134.31,80.53    "></polygon>
			<path class="st0" d="M139.16,80.53V52.11l5.85-0.43l0.93,3.61l0.35-0.53c1.23-1.85,4.79-3.2,8.89-3.4v7.23     c-6.98,0.13-8.42,3.16-8.42,7.66v14.28H139.16z"></path>
			<path class="st0" d="M167.95,81c-9.51,0-10.79-4.46-10.79-8.82c0-8.46,6.26-10.01,18.59-10.01h1.49l-0.01-0.29     c-0.06-2.9-0.99-4.28-6.11-4.28c-4.08,0-7.27,1.61-8.44,2.29l-3.74-5.52c2-1.25,6.95-3.39,13.07-3.39     c10.7,0,12.51,3.52,12.51,11.42v8.94c0,2.37,0.23,2.94,2.55,2.98v6.15c-0.56,0.11-1.51,0.15-3.15,0.15     c-3.09,0-4.29-0.62-5.36-2.76l-0.21-0.41l-0.28,0.37C176.51,79.94,173.1,81,167.95,81z M176.27,67.22     c-10.04,0-11.93,0.68-11.93,4.29c0,2.49,1.51,3.51,5.22,3.51c5.3,0,7.67-1.98,7.67-6.42v-1.38H176.27z"></path>
			<path class="st0" d="M195.48,80.53V58.07h-5.56v-6.4h5.56v-1.69c0-6.1,1.84-10.17,10.85-10.17c1.7,0,2.71,0.04,3.62,0.09V46     h-2.52c-3.64,0-4.39,1.57-4.39,3.92v1.74h6.92v6.4h-6.92v22.46H195.48z"></path>
			<path class="st0" d="M227.8,80.64c-7.45,0-9.96-2.26-9.96-8.97v-13.6H213v-6.4h5.15l1.41-7.22l5.82-1.19v8.41h6.97v6.4h-6.97     v12.4c0,2.31,0.28,3.82,4.08,3.82h2.89v6.27C231.13,80.64,229.14,80.64,227.8,80.64z"></path>
			<polygon class="st0" points="258.63,80.53 258.63,42.56 286.09,42.56 286.09,49.69 266.59,49.69 266.59,58.53 285.57,58.53      285.57,65.55 266.59,65.55 266.59,80.53    "></polygon>
			<path class="st0" d="M292.17,80.53V51.67h7.55v28.87H292.17z M292.12,48.39v-6.87h7.65v6.87H292.12z"></path>
			<path class="st0" d="M327.22,80.53V64.59c0-3.54-0.42-6.47-5.64-6.47c-5.74,0-6.89,2.62-6.89,6.84v15.58h-7.6V52.11l5.85-0.43     l0.75,2.82l0.35-0.39c1.92-2.11,5.33-3.13,10.45-3.13c8.55,0,10.27,4.59,10.27,11.99v17.55H327.22z"></path>
			<path class="st0" d="M350.49,81c-9.51,0-10.79-4.46-10.79-8.82c0-8.46,6.26-10.01,18.59-10.01h1.49l-0.01-0.29     c-0.06-2.9-0.99-4.28-6.11-4.28c-4.08,0-7.27,1.61-8.44,2.29l-3.74-5.52c2-1.25,6.95-3.39,13.07-3.39     c10.7,0,12.51,3.52,12.51,11.42v8.94c0,2.37,0.23,2.94,2.55,2.98v6.15c-0.56,0.11-1.51,0.15-3.15,0.15     c-3.09,0-4.29-0.62-5.36-2.76l-0.21-0.41l-0.28,0.37C359.05,79.94,355.65,81,350.49,81z M358.81,67.22     c-10.04,0-11.93,0.68-11.93,4.29c0,2.49,1.51,3.51,5.22,3.51c5.3,0,7.67-1.98,7.67-6.42v-1.38H358.81z"></path>
			<path class="st0" d="M395.29,80.53V64.59c0-3.54-0.42-6.47-5.64-6.47c-5.74,0-6.89,2.62-6.89,6.84v15.58h-7.6V52.11l5.85-0.43     l0.75,2.82l0.35-0.39c1.92-2.11,5.33-3.13,10.45-3.13c8.55,0,10.27,4.59,10.27,11.99v17.55H395.29z"></path>
			<path class="st0" d="M420.74,81c-5.41,0-10.11-1.2-13.64-3.49l3.84-5.52c2.96,1.83,6.89,2.97,10.32,2.97     c4.12,0,5.59-0.41,5.59-2.73c0-1.99-1.49-2.37-5.45-2.88c-7.84-1.06-12.6-2.23-12.6-9.44c0-6.17,3.87-8.92,12.56-8.92     c4.68,0,9.04,0.92,12.03,2.53l-3.61,5.87c-2.25-1.12-5.42-1.84-8.16-1.84c-3.94,0-5.28,0.61-5.28,2.42     c0,1.95,1.39,2.32,5.08,2.83c7.15,0.99,12.81,1.78,12.81,8.98C434.24,78.5,430.58,81,420.74,81z"></path>
		</g>
	</g>
	<path class="st0" d="M100.67,0H55.76c-5.32,0-11.93,5.2-12.36,5.55l-0.02,0.01l-0.01,0L0,40.27v40.27l43.38,34.71l0.01,0l0.02,0.01   c0.43,0.34,7.04,5.55,12.36,5.55h44.91l-75.5-60.4L100.67,0z M5,42.67L46.52,9.45C48.84,7.6,53.24,5,55.76,5h30.66L21.17,57.2   L5,44.27V42.67z M86.42,115.81H55.76c-2.52,0-6.92-2.6-9.26-4.47L5,78.14V50.67L86.42,115.81z"></path>
</g>
</svg>
